<svg xmlns="http://www.w3.org/2000/svg" viewBox="0 0 512 512" width="100%" height="100%" role="img" aria-labelledby="title desc">
  <title id="title">Trivial Koruño</title>
  <desc id="desc">Icono plano inspirado en la Torre de Hércules.</desc>
  <defs>
    <clipPath id="app-clip">
      <rect width="512" height="512" rx="112"/>
    </clipPath>

    <linearGradient id="sky" x1="0" y1="0" x2="0" y2="512" gradientUnits="userSpaceOnUse">
      <stop offset="0" stop-color="#60a5fa"/>
      <stop offset="0.58" stop-color="#3b82f6"/>
      <stop offset="1" stop-color="#1e40af"/>
    </linearGradient>

    <linearGradient id="tower" x1="176" y1="96" x2="336" y2="432" gradientUnits="userSpaceOnUse">
      <stop offset="0" stop-color="#fdba74"/>
      <stop offset="0.55" stop-color="#fb923c"/>
      <stop offset="1" stop-color="#f97316"/>
    </linearGradient>

    <linearGradient id="base" x1="96" y1="416" x2="416" y2="512" gradientUnits="userSpaceOnUse">
      <stop offset="0" stop-color="#f59e0b"/>
      <stop offset="1" stop-color="#f97316"/>
    </linearGradient>

    <filter id="soft-shadow" x="-20%" y="-20%" width="140%" height="150%">
      <feDropShadow dx="0" dy="10" stdDeviation="9" flood-color="#0f172a" flood-opacity="0.24"/>
    </filter>
  </defs>

  <g clip-path="url(#app-clip)">
    <rect width="512" height="512" fill="url(#sky)"/>

    <path d="M0 366Q128 314 256 366T512 366V512H0Z" fill="#2563eb" opacity="0.72"/>
    <path d="M0 430Q128 482 256 430T512 430V512H0Z" fill="#1d4ed8" opacity="0.42"/>

    <g filter="url(#soft-shadow)">
      <path d="M96 448c0-17.7 14.3-32 32-32h256c17.7 0 32 14.3 32 32v64H96Z" fill="url(#base)"/>

      <rect x="224" y="16" width="16" height="88" rx="8" fill="#fb923c"/>

      <polygon points="240,50 288,32 288,60 240,60" fill="#1e3a8a"/>
      <polygon points="240,50 264,32 264,60 240,60" fill="#38bdf8"/>

      <rect x="240" y="58" width="48" height="46" fill="#fdba74"/>
      <rect x="264" y="58" width="24" height="46" fill="#fb923c"/>
      <rect x="192" y="96" width="128" height="16" rx="8" fill="#4b455d"/>

      <rect x="208" y="112" width="96" height="70" fill="#fdba74"/>
      <rect x="256" y="112" width="48" height="70" fill="#fb923c"/>
      <rect x="160" y="176" width="192" height="16" rx="8" fill="#4b455d"/>

      <rect x="176" y="192" width="160" height="240" fill="url(#tower)"/>
      <rect x="256" y="192" width="80" height="240" fill="#f97316" opacity="0.82"/>
      <rect x="176" y="192" width="54" height="240" fill="#fed7aa" opacity="0.44"/>

      <rect x="192" y="224" width="16" height="48" rx="5" fill="#f97316"/>
      <rect x="224" y="224" width="16" height="48" rx="5" fill="#f97316"/>
      <rect x="272" y="224" width="16" height="48" rx="5" fill="#c2410c" opacity="0.54"/>
      <rect x="304" y="224" width="16" height="48" rx="5" fill="#c2410c" opacity="0.54"/>

      <rect x="192" y="304" width="16" height="48" rx="5" fill="#f97316"/>
      <rect x="224" y="304" width="16" height="48" rx="5" fill="#f97316"/>
      <rect x="272" y="304" width="16" height="48" rx="5" fill="#c2410c" opacity="0.54"/>
      <rect x="304" y="304" width="16" height="48" rx="5" fill="#c2410c" opacity="0.54"/>

      <rect x="192" y="384" width="16" height="48" rx="5" fill="#f97316"/>
      <rect x="224" y="384" width="16" height="48" rx="5" fill="#f97316"/>
      <rect x="272" y="384" width="16" height="48" rx="5" fill="#c2410c" opacity="0.54"/>
      <rect x="304" y="384" width="16" height="48" rx="5" fill="#c2410c" opacity="0.54"/>
    </g>
  </g>
</svg>
