<svg xmlns="http://www.w3.org/2000/svg" viewBox="0 0 512 512">
  <path d="M224 16c0-8.8 7.2-16 16-16s16 7.2 16 16v25l48-18v33h-48v40h56c8.8 0 16 7.2 16 16s-7.2 16-16 16h-16v64h48c8.8 0 16 7.2 16 16s-7.2 16-16 16h-16v192h48c26.5 0 48 21.5 48 48v48H88v-48c0-26.5 21.5-48 48-48h48V224h-16c-8.8 0-16-7.2-16-16s7.2-16 16-16h48v-64h-16c-8.8 0-16-7.2-16-16s7.2-16 16-16h24V16Zm-24 224v48h16v-48h-16Zm32 0v48h16v-48h-16Zm64 0v48h16v-48h-16Zm32 0v48h16v-48h-16Zm-128 80v48h16v-48h-16Zm32 0v48h16v-48h-16Zm64 0v48h16v-48h-16Zm32 0v48h16v-48h-16Zm-128 80v48h16v-48h-16Zm32 0v48h16v-48h-16Zm64 0v48h16v-48h-16Zm32 0v48h16v-48h-16Z"/>
</svg>
